<mxfile host="app.diagrams.net" modified="2023-09-25T18:04:12.360Z" agent="Mozilla/5.0 (Windows NT 10.0; Win64; x64) AppleWebKit/537.36 (KHTML, like Gecko) Chrome/117.0.0.0 Safari/537.36 Edg/117.0.2045.36" etag="CoWCfczZnme6cgdAXuYC" version="21.8.2" type="google">
  <diagram name="Page-1" id="-Hoz8bjs1ONaEQ4kYEF7">
    <mxGraphModel dx="1026" dy="538" grid="1" gridSize="10" guides="1" tooltips="1" connect="1" arrows="1" fold="1" page="1" pageScale="1" pageWidth="850" pageHeight="1100" math="0" shadow="0">
      <root>
        <mxCell id="0" />
        <mxCell id="1" parent="0" />
        <mxCell id="ojJm9kWUbketYqbMoCzm-1" value="" style="rounded=0;whiteSpace=wrap;html=1;movable=0;resizable=0;rotatable=0;deletable=0;editable=0;locked=1;connectable=0;" parent="1" vertex="1">
          <mxGeometry x="100" y="2" width="630" height="1098" as="geometry" />
        </mxCell>
        <mxCell id="ojJm9kWUbketYqbMoCzm-2" value="`" style="text;html=1;align=center;verticalAlign=middle;resizable=0;points=[];autosize=1;strokeColor=none;fillColor=none;" parent="1" vertex="1">
          <mxGeometry x="25" y="140" width="30" height="30" as="geometry" />
        </mxCell>
        <mxCell id="ojJm9kWUbketYqbMoCzm-3" value="&lt;b&gt;&lt;font style=&quot;font-size: 18px;&quot;&gt;Obokash Room Rental&lt;/font&gt;&lt;/b&gt;" style="text;html=1;align=center;verticalAlign=middle;resizable=0;points=[];autosize=1;strokeColor=none;fillColor=none;" parent="1" vertex="1">
          <mxGeometry x="315" y="2" width="220" height="40" as="geometry" />
        </mxCell>
        <mxCell id="ojJm9kWUbketYqbMoCzm-4" value="Actor" style="shape=umlActor;verticalLabelPosition=bottom;verticalAlign=top;html=1;outlineConnect=0;" parent="1" vertex="1">
          <mxGeometry x="25" y="192" width="30" height="60" as="geometry" />
        </mxCell>
        <mxCell id="ojJm9kWUbketYqbMoCzm-6" value="Admin" style="shape=umlActor;verticalLabelPosition=bottom;verticalAlign=top;html=1;outlineConnect=0;" parent="1" vertex="1">
          <mxGeometry x="770" y="192" width="30" height="60" as="geometry" />
        </mxCell>
        <mxCell id="ojJm9kWUbketYqbMoCzm-9" value="&lt;font style=&quot;font-size: 14px;&quot;&gt;&lt;b&gt;Login&lt;/b&gt;&lt;/font&gt;" style="ellipse;whiteSpace=wrap;html=1;" parent="1" vertex="1">
          <mxGeometry x="200" y="90" width="120" height="52" as="geometry" />
        </mxCell>
        <mxCell id="ojJm9kWUbketYqbMoCzm-11" value="" style="endArrow=none;html=1;rounded=0;entryX=0.067;entryY=0.692;entryDx=0;entryDy=0;entryPerimeter=0;" parent="1" source="ojJm9kWUbketYqbMoCzm-4" target="ojJm9kWUbketYqbMoCzm-9" edge="1">
          <mxGeometry width="50" height="50" relative="1" as="geometry">
            <mxPoint x="60" y="202" as="sourcePoint" />
            <mxPoint x="390" y="12" as="targetPoint" />
          </mxGeometry>
        </mxCell>
        <mxCell id="ojJm9kWUbketYqbMoCzm-12" value="User login" style="ellipse;whiteSpace=wrap;html=1;" parent="1" vertex="1">
          <mxGeometry x="160" y="197" width="120" height="50" as="geometry" />
        </mxCell>
        <mxCell id="ojJm9kWUbketYqbMoCzm-13" value="Property owner login" style="ellipse;whiteSpace=wrap;html=1;" parent="1" vertex="1">
          <mxGeometry x="320" y="192" width="120" height="50" as="geometry" />
        </mxCell>
        <mxCell id="ojJm9kWUbketYqbMoCzm-14" value="" style="endArrow=classic;html=1;rounded=0;" parent="1" edge="1">
          <mxGeometry width="50" height="50" relative="1" as="geometry">
            <mxPoint x="280" y="172" as="sourcePoint" />
            <mxPoint x="280" y="142" as="targetPoint" />
          </mxGeometry>
        </mxCell>
        <mxCell id="ojJm9kWUbketYqbMoCzm-15" value="" style="endArrow=none;html=1;rounded=0;" parent="1" edge="1">
          <mxGeometry width="50" height="50" relative="1" as="geometry">
            <mxPoint x="200" y="172" as="sourcePoint" />
            <mxPoint x="370" y="172" as="targetPoint" />
          </mxGeometry>
        </mxCell>
        <mxCell id="ojJm9kWUbketYqbMoCzm-16" value="" style="endArrow=none;html=1;rounded=0;exitX=0.419;exitY=0.017;exitDx=0;exitDy=0;exitPerimeter=0;" parent="1" source="ojJm9kWUbketYqbMoCzm-12" edge="1">
          <mxGeometry width="50" height="50" relative="1" as="geometry">
            <mxPoint x="210" y="192" as="sourcePoint" />
            <mxPoint x="200" y="172" as="targetPoint" />
          </mxGeometry>
        </mxCell>
        <mxCell id="ojJm9kWUbketYqbMoCzm-17" value="" style="endArrow=none;html=1;rounded=0;" parent="1" source="ojJm9kWUbketYqbMoCzm-13" edge="1">
          <mxGeometry width="50" height="50" relative="1" as="geometry">
            <mxPoint x="310" y="222" as="sourcePoint" />
            <mxPoint x="370" y="172" as="targetPoint" />
          </mxGeometry>
        </mxCell>
        <mxCell id="ojJm9kWUbketYqbMoCzm-19" value="Add property" style="ellipse;whiteSpace=wrap;html=1;" parent="1" vertex="1">
          <mxGeometry x="160" y="302" width="170" height="40" as="geometry" />
        </mxCell>
        <mxCell id="ojJm9kWUbketYqbMoCzm-20" value="" style="endArrow=none;html=1;rounded=0;entryX=0.045;entryY=0.336;entryDx=0;entryDy=0;entryPerimeter=0;" parent="1" source="ojJm9kWUbketYqbMoCzm-4" target="ojJm9kWUbketYqbMoCzm-19" edge="1">
          <mxGeometry width="50" height="50" relative="1" as="geometry">
            <mxPoint x="60" y="322" as="sourcePoint" />
            <mxPoint x="160" y="312" as="targetPoint" />
          </mxGeometry>
        </mxCell>
        <mxCell id="kYcAE9McIEV8M1zZk4c5-11" style="edgeStyle=orthogonalEdgeStyle;rounded=0;orthogonalLoop=1;jettySize=auto;html=1;exitX=1;exitY=0.5;exitDx=0;exitDy=0;" parent="1" source="kYcAE9McIEV8M1zZk4c5-1" edge="1">
          <mxGeometry relative="1" as="geometry">
            <mxPoint x="305" y="527" as="targetPoint" />
          </mxGeometry>
        </mxCell>
        <mxCell id="kYcAE9McIEV8M1zZk4c5-13" style="edgeStyle=orthogonalEdgeStyle;rounded=0;orthogonalLoop=1;jettySize=auto;html=1;exitX=1;exitY=0.5;exitDx=0;exitDy=0;" parent="1" source="kYcAE9McIEV8M1zZk4c5-1" edge="1">
          <mxGeometry relative="1" as="geometry">
            <mxPoint x="310" y="527" as="targetPoint" />
          </mxGeometry>
        </mxCell>
        <mxCell id="kYcAE9McIEV8M1zZk4c5-1" value="" style="ellipse;whiteSpace=wrap;html=1;" parent="1" vertex="1">
          <mxGeometry x="185" y="502" width="120" height="50" as="geometry" />
        </mxCell>
        <mxCell id="ojJm9kWUbketYqbMoCzm-21" value="" style="endArrow=classic;html=1;rounded=0;" parent="1" edge="1">
          <mxGeometry width="50" height="50" relative="1" as="geometry">
            <mxPoint x="370" y="262" as="sourcePoint" />
            <mxPoint x="390" y="242" as="targetPoint" />
          </mxGeometry>
        </mxCell>
        <mxCell id="ojJm9kWUbketYqbMoCzm-22" value="&amp;lt;&amp;lt;include&amp;gt;&amp;gt;" style="text;html=1;align=center;verticalAlign=middle;resizable=0;points=[];autosize=1;strokeColor=none;fillColor=none;" parent="1" vertex="1">
          <mxGeometry x="290" y="247" width="90" height="30" as="geometry" />
        </mxCell>
        <mxCell id="ojJm9kWUbketYqbMoCzm-23" value="" style="endArrow=none;dashed=1;html=1;dashPattern=1 3;strokeWidth=2;rounded=0;" parent="1" edge="1">
          <mxGeometry width="50" height="50" relative="1" as="geometry">
            <mxPoint x="260" y="302" as="sourcePoint" />
            <mxPoint x="300" y="262" as="targetPoint" />
          </mxGeometry>
        </mxCell>
        <mxCell id="ojJm9kWUbketYqbMoCzm-24" value="Add features" style="ellipse;whiteSpace=wrap;html=1;" parent="1" vertex="1">
          <mxGeometry x="195" y="352" width="120" height="40" as="geometry" />
        </mxCell>
        <mxCell id="ojJm9kWUbketYqbMoCzm-25" value="No. of rooms" style="ellipse;whiteSpace=wrap;html=1;" parent="1" vertex="1">
          <mxGeometry x="125" y="412" width="70" height="30" as="geometry" />
        </mxCell>
        <mxCell id="ojJm9kWUbketYqbMoCzm-26" value="sizes" style="ellipse;whiteSpace=wrap;html=1;" parent="1" vertex="1">
          <mxGeometry x="200" y="417" width="60" height="30" as="geometry" />
        </mxCell>
        <mxCell id="ojJm9kWUbketYqbMoCzm-27" value="facilities" style="ellipse;whiteSpace=wrap;html=1;" parent="1" vertex="1">
          <mxGeometry x="265" y="422" width="55" height="25" as="geometry" />
        </mxCell>
        <mxCell id="kYcAE9McIEV8M1zZk4c5-8" value="Search rooms&lt;br&gt;" style="text;html=1;align=center;verticalAlign=middle;resizable=0;points=[];autosize=1;strokeColor=none;fillColor=none;" parent="1" vertex="1">
          <mxGeometry x="195" y="512" width="100" height="30" as="geometry" />
        </mxCell>
        <mxCell id="kYcAE9McIEV8M1zZk4c5-7" value="" style="endArrow=none;html=1;rounded=0;entryX=0.045;entryY=0.656;entryDx=0;entryDy=0;entryPerimeter=0;" parent="1" source="ojJm9kWUbketYqbMoCzm-4" target="kYcAE9McIEV8M1zZk4c5-1" edge="1">
          <mxGeometry width="50" height="50" relative="1" as="geometry">
            <mxPoint x="70" y="422" as="sourcePoint" />
            <mxPoint x="90" y="402" as="targetPoint" />
            <Array as="points">
              <mxPoint x="50" y="252" />
              <mxPoint x="90" y="402" />
            </Array>
          </mxGeometry>
        </mxCell>
        <mxCell id="ojJm9kWUbketYqbMoCzm-28" value="locations" style="ellipse;whiteSpace=wrap;html=1;" parent="1" vertex="1">
          <mxGeometry x="340" y="422" width="60" height="27" as="geometry" />
        </mxCell>
        <mxCell id="kYcAE9McIEV8M1zZk4c5-12" value="" style="endArrow=none;dashed=1;html=1;dashPattern=1 3;strokeWidth=2;rounded=0;" parent="1" edge="1">
          <mxGeometry width="50" height="50" relative="1" as="geometry">
            <mxPoint x="305" y="532" as="sourcePoint" />
            <mxPoint x="490" y="332" as="targetPoint" />
          </mxGeometry>
        </mxCell>
        <mxCell id="ojJm9kWUbketYqbMoCzm-30" value="" style="endArrow=none;html=1;rounded=0;" parent="1" source="ojJm9kWUbketYqbMoCzm-25" edge="1">
          <mxGeometry width="50" height="50" relative="1" as="geometry">
            <mxPoint x="110" y="432" as="sourcePoint" />
            <mxPoint x="160" y="402" as="targetPoint" />
          </mxGeometry>
        </mxCell>
        <mxCell id="ojJm9kWUbketYqbMoCzm-29" value="" style="endArrow=none;html=1;rounded=0;" parent="1" edge="1">
          <mxGeometry width="50" height="50" relative="1" as="geometry">
            <mxPoint x="160" y="402" as="sourcePoint" />
            <mxPoint x="370" y="402" as="targetPoint" />
          </mxGeometry>
        </mxCell>
        <mxCell id="kYcAE9McIEV8M1zZk4c5-14" value="&amp;lt;&amp;lt;include&amp;gt;&amp;gt;" style="text;html=1;align=center;verticalAlign=middle;resizable=0;points=[];autosize=1;strokeColor=none;fillColor=none;" parent="1" vertex="1">
          <mxGeometry x="460" y="307" width="90" height="30" as="geometry" />
        </mxCell>
        <mxCell id="ojJm9kWUbketYqbMoCzm-32" value="" style="endArrow=none;html=1;rounded=0;" parent="1" source="ojJm9kWUbketYqbMoCzm-27" edge="1">
          <mxGeometry width="50" height="50" relative="1" as="geometry">
            <mxPoint x="280" y="452" as="sourcePoint" />
            <mxPoint x="300" y="402" as="targetPoint" />
          </mxGeometry>
        </mxCell>
        <mxCell id="ojJm9kWUbketYqbMoCzm-33" value="" style="endArrow=none;html=1;rounded=0;" parent="1" source="ojJm9kWUbketYqbMoCzm-28" edge="1">
          <mxGeometry width="50" height="50" relative="1" as="geometry">
            <mxPoint x="320" y="452" as="sourcePoint" />
            <mxPoint x="370" y="402" as="targetPoint" />
          </mxGeometry>
        </mxCell>
        <mxCell id="ojJm9kWUbketYqbMoCzm-31" value="" style="endArrow=none;html=1;rounded=0;" parent="1" source="ojJm9kWUbketYqbMoCzm-26" edge="1">
          <mxGeometry width="50" height="50" relative="1" as="geometry">
            <mxPoint x="160" y="442" as="sourcePoint" />
            <mxPoint x="230" y="402" as="targetPoint" />
          </mxGeometry>
        </mxCell>
        <mxCell id="ojJm9kWUbketYqbMoCzm-34" value="" style="endArrow=classic;html=1;rounded=0;entryX=0.813;entryY=0.876;entryDx=0;entryDy=0;entryPerimeter=0;" parent="1" target="ojJm9kWUbketYqbMoCzm-24" edge="1">
          <mxGeometry width="50" height="50" relative="1" as="geometry">
            <mxPoint x="330" y="402" as="sourcePoint" />
            <mxPoint x="310" y="392" as="targetPoint" />
          </mxGeometry>
        </mxCell>
        <mxCell id="ojJm9kWUbketYqbMoCzm-35" value="" style="endArrow=none;html=1;rounded=0;" parent="1" source="ojJm9kWUbketYqbMoCzm-24" edge="1">
          <mxGeometry width="50" height="50" relative="1" as="geometry">
            <mxPoint x="190" y="392" as="sourcePoint" />
            <mxPoint x="240" y="342" as="targetPoint" />
          </mxGeometry>
        </mxCell>
        <mxCell id="ojJm9kWUbketYqbMoCzm-36" value="Verifies" style="ellipse;whiteSpace=wrap;html=1;" parent="1" vertex="1">
          <mxGeometry x="550" y="147" width="120" height="45" as="geometry" />
        </mxCell>
        <mxCell id="kYcAE9McIEV8M1zZk4c5-16" value="" style="endArrow=none;dashed=1;html=1;dashPattern=1 3;strokeWidth=2;rounded=0;" parent="1" edge="1">
          <mxGeometry width="50" height="50" relative="1" as="geometry">
            <mxPoint x="305" y="532" as="sourcePoint" />
            <mxPoint x="470" y="452" as="targetPoint" />
            <Array as="points">
              <mxPoint x="350" y="502" />
              <mxPoint x="390" y="492" />
            </Array>
          </mxGeometry>
        </mxCell>
        <mxCell id="ojJm9kWUbketYqbMoCzm-37" value="" style="endArrow=none;html=1;rounded=0;exitX=1;exitY=0.5;exitDx=0;exitDy=0;" parent="1" source="ojJm9kWUbketYqbMoCzm-36" edge="1">
          <mxGeometry width="50" height="50" relative="1" as="geometry">
            <mxPoint x="720" y="272" as="sourcePoint" />
            <mxPoint x="770" y="222" as="targetPoint" />
          </mxGeometry>
        </mxCell>
        <mxCell id="kYcAE9McIEV8M1zZk4c5-15" value="" style="endArrow=classic;html=1;rounded=0;" parent="1" source="kYcAE9McIEV8M1zZk4c5-14" edge="1">
          <mxGeometry width="50" height="50" relative="1" as="geometry">
            <mxPoint x="400" y="322" as="sourcePoint" />
            <mxPoint x="270" y="232" as="targetPoint" />
            <Array as="points">
              <mxPoint x="380" y="252" />
            </Array>
          </mxGeometry>
        </mxCell>
        <mxCell id="ojJm9kWUbketYqbMoCzm-38" value="" style="endArrow=none;html=1;rounded=0;exitX=1;exitY=0.5;exitDx=0;exitDy=0;entryX=0;entryY=0.5;entryDx=0;entryDy=0;" parent="1" source="ojJm9kWUbketYqbMoCzm-9" target="ojJm9kWUbketYqbMoCzm-36" edge="1">
          <mxGeometry width="50" height="50" relative="1" as="geometry">
            <mxPoint x="450" y="182" as="sourcePoint" />
            <mxPoint x="500" y="132" as="targetPoint" />
          </mxGeometry>
        </mxCell>
        <mxCell id="kYcAE9McIEV8M1zZk4c5-17" value="&amp;lt;&amp;lt;include&amp;gt;&amp;gt;" style="text;html=1;align=center;verticalAlign=middle;resizable=0;points=[];autosize=1;strokeColor=none;fillColor=none;" parent="1" vertex="1">
          <mxGeometry x="430" y="432" width="90" height="30" as="geometry" />
        </mxCell>
        <mxCell id="kYcAE9McIEV8M1zZk4c5-18" value="" style="ellipse;whiteSpace=wrap;html=1;" parent="1" vertex="1">
          <mxGeometry x="535" y="372" width="120" height="40" as="geometry" />
        </mxCell>
        <mxCell id="kYcAE9McIEV8M1zZk4c5-19" value="" style="endArrow=classic;html=1;rounded=0;" parent="1" edge="1">
          <mxGeometry width="50" height="50" relative="1" as="geometry">
            <mxPoint x="485" y="442" as="sourcePoint" />
            <mxPoint x="535" y="392" as="targetPoint" />
          </mxGeometry>
        </mxCell>
        <mxCell id="kYcAE9McIEV8M1zZk4c5-20" value="&amp;lt;&amp;lt;include&amp;gt;&amp;gt;" style="text;html=1;align=center;verticalAlign=middle;resizable=0;points=[];autosize=1;strokeColor=none;fillColor=none;rotation=-45;" parent="1" vertex="1">
          <mxGeometry x="490" y="222" width="90" height="30" as="geometry" />
        </mxCell>
        <mxCell id="ojJm9kWUbketYqbMoCzm-40" value="" style="endArrow=none;dashed=1;html=1;rounded=0;exitX=1;exitY=0.5;exitDx=0;exitDy=0;entryX=0.004;entryY=0.628;entryDx=0;entryDy=0;entryPerimeter=0;" parent="1" source="ojJm9kWUbketYqbMoCzm-19" target="kYcAE9McIEV8M1zZk4c5-20" edge="1">
          <mxGeometry width="50" height="50" relative="1" as="geometry">
            <mxPoint x="350" y="422" as="sourcePoint" />
            <mxPoint x="400" y="372" as="targetPoint" />
          </mxGeometry>
        </mxCell>
        <mxCell id="kYcAE9McIEV8M1zZk4c5-21" value="Provide location" style="text;html=1;align=center;verticalAlign=middle;resizable=0;points=[];autosize=1;strokeColor=none;fillColor=none;" parent="1" vertex="1">
          <mxGeometry x="535" y="377" width="110" height="30" as="geometry" />
        </mxCell>
        <mxCell id="ojJm9kWUbketYqbMoCzm-41" value="" style="endArrow=classic;html=1;rounded=0;" parent="1" edge="1">
          <mxGeometry width="50" height="50" relative="1" as="geometry">
            <mxPoint x="560" y="212" as="sourcePoint" />
            <mxPoint x="580" y="192" as="targetPoint" />
          </mxGeometry>
        </mxCell>
        <mxCell id="ojJm9kWUbketYqbMoCzm-42" value="Recommendation" style="ellipse;whiteSpace=wrap;html=1;" parent="1" vertex="1">
          <mxGeometry x="140" y="642" width="120" height="40" as="geometry" />
        </mxCell>
        <mxCell id="kYcAE9McIEV8M1zZk4c5-22" value="" style="endArrow=none;dashed=1;html=1;dashPattern=1 3;strokeWidth=2;rounded=0;exitX=0.978;exitY=1.053;exitDx=0;exitDy=0;exitPerimeter=0;" parent="1" source="kYcAE9McIEV8M1zZk4c5-8" edge="1">
          <mxGeometry width="50" height="50" relative="1" as="geometry">
            <mxPoint x="315" y="542" as="sourcePoint" />
            <mxPoint x="510" y="512" as="targetPoint" />
            <Array as="points">
              <mxPoint x="350" y="542" />
              <mxPoint x="380" y="552" />
              <mxPoint x="440" y="532" />
            </Array>
          </mxGeometry>
        </mxCell>
        <mxCell id="kYcAE9McIEV8M1zZk4c5-23" value="&amp;lt;&amp;lt;include&amp;gt;&amp;gt;" style="text;html=1;align=center;verticalAlign=middle;resizable=0;points=[];autosize=1;strokeColor=none;fillColor=none;" parent="1" vertex="1">
          <mxGeometry x="470" y="492" width="90" height="30" as="geometry" />
        </mxCell>
        <mxCell id="kYcAE9McIEV8M1zZk4c5-25" value="" style="endArrow=classic;html=1;rounded=0;" parent="1" edge="1">
          <mxGeometry width="50" height="50" relative="1" as="geometry">
            <mxPoint x="400" y="422" as="sourcePoint" />
            <mxPoint x="450" y="372" as="targetPoint" />
          </mxGeometry>
        </mxCell>
        <mxCell id="kYcAE9McIEV8M1zZk4c5-26" value="" style="endArrow=classic;html=1;rounded=0;" parent="1" edge="1">
          <mxGeometry width="50" height="50" relative="1" as="geometry">
            <mxPoint x="400" y="422" as="sourcePoint" />
            <mxPoint x="450" y="372" as="targetPoint" />
          </mxGeometry>
        </mxCell>
        <mxCell id="kYcAE9McIEV8M1zZk4c5-27" value="" style="endArrow=classic;html=1;rounded=0;" parent="1" edge="1">
          <mxGeometry width="50" height="50" relative="1" as="geometry">
            <mxPoint x="400" y="422" as="sourcePoint" />
            <mxPoint x="450" y="372" as="targetPoint" />
          </mxGeometry>
        </mxCell>
        <mxCell id="ojJm9kWUbketYqbMoCzm-43" value="" style="endArrow=none;html=1;rounded=0;exitX=0;exitY=0;exitDx=0;exitDy=0;" parent="1" source="ojJm9kWUbketYqbMoCzm-42" edge="1">
          <mxGeometry width="50" height="50" relative="1" as="geometry">
            <mxPoint x="170" y="622" as="sourcePoint" />
            <mxPoint x="60" y="222" as="targetPoint" />
            <Array as="points">
              <mxPoint x="90" y="472" />
            </Array>
          </mxGeometry>
        </mxCell>
        <mxCell id="kYcAE9McIEV8M1zZk4c5-28" value="" style="endArrow=classic;html=1;rounded=0;" parent="1" edge="1">
          <mxGeometry width="50" height="50" relative="1" as="geometry">
            <mxPoint x="400" y="422" as="sourcePoint" />
            <mxPoint x="450" y="372" as="targetPoint" />
          </mxGeometry>
        </mxCell>
        <mxCell id="kYcAE9McIEV8M1zZk4c5-29" value="" style="endArrow=classic;html=1;rounded=0;" parent="1" edge="1">
          <mxGeometry width="50" height="50" relative="1" as="geometry">
            <mxPoint x="400" y="422" as="sourcePoint" />
            <mxPoint x="450" y="372" as="targetPoint" />
          </mxGeometry>
        </mxCell>
        <mxCell id="ojJm9kWUbketYqbMoCzm-44" value="Locations" style="ellipse;whiteSpace=wrap;html=1;" parent="1" vertex="1">
          <mxGeometry x="140" y="692" width="120" height="30" as="geometry" />
        </mxCell>
        <mxCell id="kYcAE9McIEV8M1zZk4c5-35" value="" style="endArrow=none;html=1;rounded=0;exitX=1.05;exitY=0.067;exitDx=0;exitDy=0;exitPerimeter=0;" parent="1" source="kYcAE9McIEV8M1zZk4c5-8" target="ojJm9kWUbketYqbMoCzm-6" edge="1">
          <mxGeometry width="50" height="50" relative="1" as="geometry">
            <mxPoint x="630" y="332" as="sourcePoint" />
            <mxPoint x="680" y="282" as="targetPoint" />
          </mxGeometry>
        </mxCell>
        <mxCell id="ojJm9kWUbketYqbMoCzm-47" value="" style="endArrow=none;dashed=1;html=1;dashPattern=1 3;strokeWidth=2;rounded=0;exitX=1;exitY=0.5;exitDx=0;exitDy=0;entryX=0.599;entryY=0.929;entryDx=0;entryDy=0;entryPerimeter=0;" parent="1" source="ojJm9kWUbketYqbMoCzm-44" edge="1">
          <mxGeometry width="50" height="50" relative="1" as="geometry">
            <mxPoint x="280" y="742" as="sourcePoint" />
            <mxPoint x="310.27539800176623" y="711.7375430762038" as="targetPoint" />
          </mxGeometry>
        </mxCell>
        <mxCell id="kYcAE9McIEV8M1zZk4c5-36" value="" style="ellipse;whiteSpace=wrap;html=1;" parent="1" vertex="1">
          <mxGeometry x="180" y="592" width="110" height="30" as="geometry" />
        </mxCell>
        <mxCell id="ojJm9kWUbketYqbMoCzm-48" value="" style="endArrow=classic;html=1;rounded=0;entryX=0.996;entryY=0.331;entryDx=0;entryDy=0;entryPerimeter=0;exitX=0.59;exitY=0.064;exitDx=0;exitDy=0;exitPerimeter=0;" parent="1" source="ojJm9kWUbketYqbMoCzm-58" target="ojJm9kWUbketYqbMoCzm-42" edge="1">
          <mxGeometry width="50" height="50" relative="1" as="geometry">
            <mxPoint x="316.1924494946361" y="684.4388068118503" as="sourcePoint" />
            <mxPoint x="300" y="722" as="targetPoint" />
            <Array as="points" />
          </mxGeometry>
        </mxCell>
        <mxCell id="kYcAE9McIEV8M1zZk4c5-37" value="" style="ellipse;whiteSpace=wrap;html=1;" parent="1" vertex="1">
          <mxGeometry x="315" y="592" width="110" height="30" as="geometry" />
        </mxCell>
        <mxCell id="kYcAE9McIEV8M1zZk4c5-31" value="" style="ellipse;whiteSpace=wrap;html=1;" parent="1" vertex="1">
          <mxGeometry x="560" y="422" width="160" height="40" as="geometry" />
        </mxCell>
        <mxCell id="kYcAE9McIEV8M1zZk4c5-38" value="" style="ellipse;whiteSpace=wrap;html=1;" parent="1" vertex="1">
          <mxGeometry x="450" y="592" width="110" height="30" as="geometry" />
        </mxCell>
        <mxCell id="kYcAE9McIEV8M1zZk4c5-40" value="" style="endArrow=none;html=1;rounded=0;" parent="1" edge="1">
          <mxGeometry width="50" height="50" relative="1" as="geometry">
            <mxPoint x="230" y="572" as="sourcePoint" />
            <mxPoint x="490" y="572" as="targetPoint" />
          </mxGeometry>
        </mxCell>
        <mxCell id="ojJm9kWUbketYqbMoCzm-49" value="Last visits" style="ellipse;whiteSpace=wrap;html=1;" parent="1" vertex="1">
          <mxGeometry x="125" y="742" width="75" height="20" as="geometry" />
        </mxCell>
        <mxCell id="kYcAE9McIEV8M1zZk4c5-30" value="" style="endArrow=classic;html=1;rounded=0;" parent="1" edge="1">
          <mxGeometry width="50" height="50" relative="1" as="geometry">
            <mxPoint x="520" y="502" as="sourcePoint" />
            <mxPoint x="570" y="452" as="targetPoint" />
          </mxGeometry>
        </mxCell>
        <mxCell id="kYcAE9McIEV8M1zZk4c5-32" value="Provide check in/out date" style="text;html=1;align=center;verticalAlign=middle;resizable=0;points=[];autosize=1;strokeColor=none;fillColor=none;" parent="1" vertex="1">
          <mxGeometry x="560" y="427" width="160" height="30" as="geometry" />
        </mxCell>
        <mxCell id="ojJm9kWUbketYqbMoCzm-50" value="Most popular" style="ellipse;whiteSpace=wrap;html=1;" parent="1" vertex="1">
          <mxGeometry x="207.5" y="742" width="75" height="20" as="geometry" />
        </mxCell>
        <mxCell id="ojJm9kWUbketYqbMoCzm-51" value="Nearby" style="ellipse;whiteSpace=wrap;html=1;" parent="1" vertex="1">
          <mxGeometry x="295" y="742" width="75" height="20" as="geometry" />
        </mxCell>
        <mxCell id="ojJm9kWUbketYqbMoCzm-52" value="Affordable" style="ellipse;whiteSpace=wrap;html=1;" parent="1" vertex="1">
          <mxGeometry x="385" y="742" width="75" height="20" as="geometry" />
        </mxCell>
        <mxCell id="kYcAE9McIEV8M1zZk4c5-43" value="" style="endArrow=none;html=1;rounded=0;" parent="1" edge="1">
          <mxGeometry width="50" height="50" relative="1" as="geometry">
            <mxPoint x="490" y="592" as="sourcePoint" />
            <mxPoint x="490" y="572" as="targetPoint" />
          </mxGeometry>
        </mxCell>
        <mxCell id="kYcAE9McIEV8M1zZk4c5-45" value="" style="endArrow=none;html=1;rounded=0;" parent="1" edge="1">
          <mxGeometry width="50" height="50" relative="1" as="geometry">
            <mxPoint x="360" y="592" as="sourcePoint" />
            <mxPoint x="360" y="572" as="targetPoint" />
          </mxGeometry>
        </mxCell>
        <mxCell id="kYcAE9McIEV8M1zZk4c5-46" value="" style="endArrow=none;html=1;rounded=0;" parent="1" edge="1">
          <mxGeometry width="50" height="50" relative="1" as="geometry">
            <mxPoint x="232.5" y="592" as="sourcePoint" />
            <mxPoint x="233" y="572" as="targetPoint" />
          </mxGeometry>
        </mxCell>
        <mxCell id="ojJm9kWUbketYqbMoCzm-53" value="" style="endArrow=none;html=1;rounded=0;" parent="1" edge="1">
          <mxGeometry width="50" height="50" relative="1" as="geometry">
            <mxPoint x="160" y="732" as="sourcePoint" />
            <mxPoint x="430" y="732" as="targetPoint" />
          </mxGeometry>
        </mxCell>
        <mxCell id="ojJm9kWUbketYqbMoCzm-54" value="" style="endArrow=none;html=1;rounded=0;exitX=0.404;exitY=0.044;exitDx=0;exitDy=0;exitPerimeter=0;" parent="1" source="ojJm9kWUbketYqbMoCzm-49" edge="1">
          <mxGeometry width="50" height="50" relative="1" as="geometry">
            <mxPoint x="110" y="782" as="sourcePoint" />
            <mxPoint x="160" y="732" as="targetPoint" />
          </mxGeometry>
        </mxCell>
        <mxCell id="ojJm9kWUbketYqbMoCzm-55" value="" style="endArrow=none;html=1;rounded=0;exitX=0.441;exitY=0.054;exitDx=0;exitDy=0;exitPerimeter=0;" parent="1" source="ojJm9kWUbketYqbMoCzm-50" edge="1">
          <mxGeometry width="50" height="50" relative="1" as="geometry">
            <mxPoint x="190" y="782" as="sourcePoint" />
            <mxPoint x="240" y="732" as="targetPoint" />
          </mxGeometry>
        </mxCell>
        <mxCell id="kYcAE9McIEV8M1zZk4c5-47" value="" style="endArrow=classic;html=1;rounded=0;entryX=0.5;entryY=1;entryDx=0;entryDy=0;" parent="1" target="kYcAE9McIEV8M1zZk4c5-1" edge="1">
          <mxGeometry width="50" height="50" relative="1" as="geometry">
            <mxPoint x="245" y="572" as="sourcePoint" />
            <mxPoint x="295" y="522" as="targetPoint" />
          </mxGeometry>
        </mxCell>
        <mxCell id="kYcAE9McIEV8M1zZk4c5-48" value="View room space&lt;br&gt;" style="text;html=1;align=center;verticalAlign=middle;resizable=0;points=[];autosize=1;strokeColor=none;fillColor=none;" parent="1" vertex="1">
          <mxGeometry x="175" y="592" width="120" height="30" as="geometry" />
        </mxCell>
        <mxCell id="ojJm9kWUbketYqbMoCzm-58" value="&lt;font style=&quot;font-size: 9px;&quot;&gt;&amp;lt;&amp;lt;include&amp;gt;&amp;gt;&lt;/font&gt;" style="text;html=1;align=center;verticalAlign=middle;resizable=0;points=[];autosize=1;strokeColor=none;fillColor=none;rotation=15;" parent="1" vertex="1">
          <mxGeometry x="270" y="682" width="70" height="30" as="geometry" />
        </mxCell>
        <mxCell id="ojJm9kWUbketYqbMoCzm-57" value="" style="endArrow=none;html=1;rounded=0;exitX=0.5;exitY=0;exitDx=0;exitDy=0;" parent="1" source="ojJm9kWUbketYqbMoCzm-52" edge="1">
          <mxGeometry width="50" height="50" relative="1" as="geometry">
            <mxPoint x="380" y="782" as="sourcePoint" />
            <mxPoint x="430" y="732" as="targetPoint" />
          </mxGeometry>
        </mxCell>
        <mxCell id="kYcAE9McIEV8M1zZk4c5-49" value="View room picture&lt;br&gt;" style="text;html=1;align=center;verticalAlign=middle;resizable=0;points=[];autosize=1;strokeColor=none;fillColor=none;" parent="1" vertex="1">
          <mxGeometry x="310" y="592" width="120" height="30" as="geometry" />
        </mxCell>
        <mxCell id="ojJm9kWUbketYqbMoCzm-56" value="" style="endArrow=none;html=1;rounded=0;" parent="1" source="ojJm9kWUbketYqbMoCzm-51" edge="1">
          <mxGeometry width="50" height="50" relative="1" as="geometry">
            <mxPoint x="280" y="782" as="sourcePoint" />
            <mxPoint x="330" y="732" as="targetPoint" />
          </mxGeometry>
        </mxCell>
        <mxCell id="ojJm9kWUbketYqbMoCzm-59" value="" style="endArrow=none;html=1;rounded=0;exitX=1;exitY=0;exitDx=0;exitDy=0;" parent="1" source="ojJm9kWUbketYqbMoCzm-42" edge="1">
          <mxGeometry width="50" height="50" relative="1" as="geometry">
            <mxPoint x="610" y="642" as="sourcePoint" />
            <mxPoint x="780" y="232" as="targetPoint" />
            <Array as="points">
              <mxPoint x="720" y="612" />
              <mxPoint x="720" y="542" />
              <mxPoint x="720" y="552" />
            </Array>
          </mxGeometry>
        </mxCell>
        <mxCell id="kYcAE9McIEV8M1zZk4c5-50" value="View rent" style="text;html=1;align=center;verticalAlign=middle;resizable=0;points=[];autosize=1;strokeColor=none;fillColor=none;" parent="1" vertex="1">
          <mxGeometry x="465" y="592" width="70" height="30" as="geometry" />
        </mxCell>
        <mxCell id="ojJm9kWUbketYqbMoCzm-60" value="" style="endArrow=classic;html=1;rounded=0;entryX=1;entryY=1;entryDx=0;entryDy=0;" parent="1" target="ojJm9kWUbketYqbMoCzm-44" edge="1">
          <mxGeometry width="50" height="50" relative="1" as="geometry">
            <mxPoint x="260" y="732" as="sourcePoint" />
            <mxPoint x="200" y="722" as="targetPoint" />
          </mxGeometry>
        </mxCell>
        <mxCell id="ojJm9kWUbketYqbMoCzm-61" value="" style="endArrow=none;html=1;rounded=0;" parent="1" source="ojJm9kWUbketYqbMoCzm-44" edge="1">
          <mxGeometry width="50" height="50" relative="1" as="geometry">
            <mxPoint x="140" y="732" as="sourcePoint" />
            <mxPoint x="190" y="682" as="targetPoint" />
          </mxGeometry>
        </mxCell>
        <mxCell id="3kiPiT8L1jtW9e2mRs-q-1" value="" style="ellipse;whiteSpace=wrap;html=1;" parent="1" vertex="1">
          <mxGeometry x="232.5" y="832" width="147.5" height="50" as="geometry" />
        </mxCell>
        <mxCell id="3kiPiT8L1jtW9e2mRs-q-4" value="" style="endArrow=classic;html=1;rounded=0;" parent="1" target="ojJm9kWUbketYqbMoCzm-12" edge="1">
          <mxGeometry width="50" height="50" relative="1" as="geometry">
            <mxPoint x="130" y="832" as="sourcePoint" />
            <mxPoint x="90" y="282" as="targetPoint" />
            <Array as="points">
              <mxPoint x="110" y="342" />
            </Array>
          </mxGeometry>
        </mxCell>
        <mxCell id="3kiPiT8L1jtW9e2mRs-q-5" value="&lt;font style=&quot;font-size: 9px;&quot;&gt;&amp;lt;&amp;lt;include&amp;gt;&amp;gt;&lt;/font&gt;" style="text;html=1;align=center;verticalAlign=middle;resizable=0;points=[];autosize=1;strokeColor=none;fillColor=none;rotation=285;" parent="1" vertex="1">
          <mxGeometry x="100" y="822" width="70" height="30" as="geometry" />
        </mxCell>
        <mxCell id="3kiPiT8L1jtW9e2mRs-q-6" value="" style="endArrow=none;dashed=1;html=1;dashPattern=1 3;strokeWidth=2;rounded=0;" parent="1" source="3kiPiT8L1jtW9e2mRs-q-5" edge="1">
          <mxGeometry width="50" height="50" relative="1" as="geometry">
            <mxPoint x="185" y="902" as="sourcePoint" />
            <mxPoint x="235" y="852" as="targetPoint" />
          </mxGeometry>
        </mxCell>
        <mxCell id="3kiPiT8L1jtW9e2mRs-q-7" value="Share user experience&lt;br&gt;" style="text;html=1;align=center;verticalAlign=middle;resizable=0;points=[];autosize=1;strokeColor=none;fillColor=none;" parent="1" vertex="1">
          <mxGeometry x="236.25" y="842" width="140" height="30" as="geometry" />
        </mxCell>
        <mxCell id="3kiPiT8L1jtW9e2mRs-q-9" value="" style="endArrow=none;html=1;rounded=0;exitX=0.89;exitY=-0.107;exitDx=0;exitDy=0;exitPerimeter=0;" parent="1" source="3kiPiT8L1jtW9e2mRs-q-7" edge="1">
          <mxGeometry width="50" height="50" relative="1" as="geometry">
            <mxPoint x="360" y="828.5999755859375" as="sourcePoint" />
            <mxPoint x="770" y="247" as="targetPoint" />
            <Array as="points">
              <mxPoint x="580" y="772" />
            </Array>
          </mxGeometry>
        </mxCell>
        <mxCell id="3kiPiT8L1jtW9e2mRs-q-10" value="" style="ellipse;whiteSpace=wrap;html=1;" parent="1" vertex="1">
          <mxGeometry x="246.25" y="932" width="133.75" height="50" as="geometry" />
        </mxCell>
        <mxCell id="3kiPiT8L1jtW9e2mRs-q-12" value="Read others experience&lt;br&gt;" style="text;html=1;align=center;verticalAlign=middle;resizable=0;points=[];autosize=1;strokeColor=none;fillColor=none;" parent="1" vertex="1">
          <mxGeometry x="238.13" y="942" width="150" height="30" as="geometry" />
        </mxCell>
        <mxCell id="3kiPiT8L1jtW9e2mRs-q-13" value="" style="endArrow=none;html=1;rounded=0;" parent="1" edge="1">
          <mxGeometry width="50" height="50" relative="1" as="geometry">
            <mxPoint x="260" y="942" as="sourcePoint" />
            <mxPoint x="30" y="242" as="targetPoint" />
            <Array as="points">
              <mxPoint x="120" y="882" />
            </Array>
          </mxGeometry>
        </mxCell>
        <mxCell id="3kiPiT8L1jtW9e2mRs-q-14" value="" style="endArrow=none;html=1;rounded=0;exitX=1;exitY=0;exitDx=0;exitDy=0;" parent="1" source="3kiPiT8L1jtW9e2mRs-q-10" edge="1">
          <mxGeometry width="50" height="50" relative="1" as="geometry">
            <mxPoint x="750" y="307" as="sourcePoint" />
            <mxPoint x="800" y="257" as="targetPoint" />
            <Array as="points">
              <mxPoint x="720" y="742" />
            </Array>
          </mxGeometry>
        </mxCell>
        <mxCell id="3kiPiT8L1jtW9e2mRs-q-16" value="" style="ellipse;whiteSpace=wrap;html=1;" parent="1" vertex="1">
          <mxGeometry x="500" y="972" width="100" height="40" as="geometry" />
        </mxCell>
        <mxCell id="3kiPiT8L1jtW9e2mRs-q-18" value="" style="endArrow=none;dashed=1;html=1;dashPattern=1 3;strokeWidth=2;rounded=0;" parent="1" edge="1">
          <mxGeometry width="50" height="50" relative="1" as="geometry">
            <mxPoint x="380" y="992" as="sourcePoint" />
            <mxPoint x="310" y="982" as="targetPoint" />
          </mxGeometry>
        </mxCell>
        <mxCell id="3kiPiT8L1jtW9e2mRs-q-19" value="&amp;lt;&amp;lt;extend&amp;gt;&amp;gt;" style="text;html=1;align=center;verticalAlign=middle;resizable=0;points=[];autosize=1;strokeColor=none;fillColor=none;" parent="1" vertex="1">
          <mxGeometry x="370" y="982" width="90" height="30" as="geometry" />
        </mxCell>
        <mxCell id="3kiPiT8L1jtW9e2mRs-q-20" value="" style="endArrow=classic;html=1;rounded=0;" parent="1" source="3kiPiT8L1jtW9e2mRs-q-19" edge="1">
          <mxGeometry width="50" height="50" relative="1" as="geometry">
            <mxPoint x="460" y="984.9411764705883" as="sourcePoint" />
            <mxPoint x="500" y="992" as="targetPoint" />
          </mxGeometry>
        </mxCell>
        <mxCell id="3kiPiT8L1jtW9e2mRs-q-21" value="comment&lt;br&gt;" style="text;html=1;align=center;verticalAlign=middle;resizable=0;points=[];autosize=1;strokeColor=none;fillColor=none;" parent="1" vertex="1">
          <mxGeometry x="510" y="977" width="70" height="30" as="geometry" />
        </mxCell>
        <mxCell id="3kiPiT8L1jtW9e2mRs-q-22" value="" style="ellipse;whiteSpace=wrap;html=1;" parent="1" vertex="1">
          <mxGeometry x="400" y="1042" width="120" height="40" as="geometry" />
        </mxCell>
        <mxCell id="3kiPiT8L1jtW9e2mRs-q-23" value="" style="ellipse;whiteSpace=wrap;html=1;" parent="1" vertex="1">
          <mxGeometry x="580" y="1042" width="120" height="40" as="geometry" />
        </mxCell>
        <mxCell id="3kiPiT8L1jtW9e2mRs-q-24" value="make comments&lt;br&gt;" style="text;html=1;align=center;verticalAlign=middle;resizable=0;points=[];autosize=1;strokeColor=none;fillColor=none;" parent="1" vertex="1">
          <mxGeometry x="405" y="1047" width="110" height="30" as="geometry" />
        </mxCell>
        <mxCell id="3kiPiT8L1jtW9e2mRs-q-25" value="view comments&lt;br&gt;" style="text;html=1;align=center;verticalAlign=middle;resizable=0;points=[];autosize=1;strokeColor=none;fillColor=none;" parent="1" vertex="1">
          <mxGeometry x="580" y="1047" width="110" height="30" as="geometry" />
        </mxCell>
        <mxCell id="3kiPiT8L1jtW9e2mRs-q-26" value="" style="endArrow=none;html=1;rounded=0;" parent="1" edge="1">
          <mxGeometry width="50" height="50" relative="1" as="geometry">
            <mxPoint x="460" y="1032" as="sourcePoint" />
            <mxPoint x="640" y="1032" as="targetPoint" />
          </mxGeometry>
        </mxCell>
        <mxCell id="3kiPiT8L1jtW9e2mRs-q-30" value="" style="endArrow=classic;html=1;rounded=0;entryX=0.5;entryY=1;entryDx=0;entryDy=0;" parent="1" target="3kiPiT8L1jtW9e2mRs-q-16" edge="1">
          <mxGeometry width="50" height="50" relative="1" as="geometry">
            <mxPoint x="550" y="1032" as="sourcePoint" />
            <mxPoint x="600" y="972" as="targetPoint" />
          </mxGeometry>
        </mxCell>
        <mxCell id="3kiPiT8L1jtW9e2mRs-q-32" value="" style="endArrow=none;html=1;rounded=0;" parent="1" edge="1">
          <mxGeometry width="50" height="50" relative="1" as="geometry">
            <mxPoint x="460" y="1042" as="sourcePoint" />
            <mxPoint x="460" y="1032" as="targetPoint" />
          </mxGeometry>
        </mxCell>
        <mxCell id="3kiPiT8L1jtW9e2mRs-q-33" value="" style="endArrow=none;html=1;rounded=0;" parent="1" edge="1">
          <mxGeometry width="50" height="50" relative="1" as="geometry">
            <mxPoint x="640" y="1042" as="sourcePoint" />
            <mxPoint x="640" y="1032" as="targetPoint" />
          </mxGeometry>
        </mxCell>
      </root>
    </mxGraphModel>
  </diagram>
</mxfile>
